<svg width="57" height="57" viewBox="0 0 57 57" fill="none" xmlns="http://www.w3.org/2000/svg">
<path d="M51.6562 31.1718H8.90625V11.1328C8.90418 10.3781 9.05183 9.63055 9.34063 8.93334C9.62943 8.23613 10.0537 7.60313 10.5888 7.07097L10.6333 7.02644C11.4719 6.18908 12.5485 5.63104 13.7162 5.42855C14.8838 5.22607 16.0855 5.38901 17.1571 5.89513C16.1451 7.57773 15.7245 9.55029 15.962 11.4994C16.1996 13.4484 17.0818 15.2622 18.4683 16.6524L19.6875 17.8716L17.4434 20.1157L19.9624 22.6346L22.2064 20.3906L34.6405 7.9567L36.8846 5.71266L34.3655 3.19364L32.1214 5.43768L30.9022 4.21853C29.4426 2.76294 27.5185 1.86567 25.4652 1.68306C23.4119 1.50046 21.3596 2.0441 19.666 3.21924C17.8801 2.09139 15.7637 1.60449 13.6645 1.83853C11.5652 2.07256 9.60804 3.01361 8.11437 4.50709L8.06984 4.55162C7.20287 5.41385 6.51552 6.43948 6.04758 7.56914C5.57965 8.6988 5.34042 9.91005 5.34375 11.1328V31.1718H1.78125V34.7343H5.34375V38.1521C5.34367 38.4393 5.38999 38.7246 5.48091 38.997L8.79492 48.9386C8.97178 49.4708 9.31184 49.9338 9.76682 50.2618C10.2218 50.5898 10.7686 50.7661 11.3294 50.7656H12.7656L11.4668 55.2187H15.1777L16.4766 50.7656H39.6439L40.9799 55.2187H44.6982L43.3623 50.7656H45.6701C46.2311 50.7661 46.7779 50.5899 47.233 50.2619C47.6881 49.934 48.0282 49.4709 48.2051 48.9386L51.5189 38.997C51.6098 38.7246 51.6562 38.4393 51.6562 38.1521V34.7343H55.2188V31.1718H51.6562ZM20.9876 6.73755C21.969 5.75822 23.2989 5.20822 24.6854 5.20822C26.0719 5.20822 27.4018 5.75822 28.3832 6.73755L29.6021 7.9567L22.2067 15.3521L20.9876 14.1332C20.0083 13.1517 19.4583 11.8218 19.4583 10.4354C19.4583 9.04889 20.0083 7.71904 20.9876 6.73755ZM48.0938 38.0074L45.0287 47.2031H11.9713L8.90625 38.0074V34.7343H48.0938V38.0074Z" fill="black"/>
</svg>
