<svg width="54" height="54" viewBox="0 0 54 54" fill="none" xmlns="http://www.w3.org/2000/svg">
<path fill-rule="evenodd" clip-rule="evenodd" d="M16.7141 9H37.2856C38.6495 9 39.9577 9.54184 40.9221 10.5063C41.8866 11.4708 42.4284 12.7789 42.4284 14.1429V39.8571C42.4284 41.2211 41.8866 42.5292 40.9221 43.4937C39.9577 44.4582 38.6495 45 37.2856 45H16.7141C15.3502 45 14.0421 44.4582 13.0776 43.4937C12.1131 42.5292 11.5713 41.2211 11.5713 39.8571V14.1429C11.5713 12.7789 12.1131 11.4708 13.0776 10.5063C14.0421 9.54184 15.3502 9 16.7141 9Z" stroke="black" stroke-width="4" stroke-linecap="round" stroke-linejoin="round"/>
<path d="M36.5196 45L27.1467 39.9909C26.3254 39.5517 25.6388 38.8978 25.1601 38.0989C24.6814 37.3001 24.4286 36.3862 24.4287 35.4549V18.5451C24.4286 17.6138 24.6814 16.6999 25.1601 15.9011C25.6388 15.1022 26.3254 14.4483 27.1467 14.0091L36.5196 9" stroke="black" stroke-width="4" stroke-linecap="round" stroke-linejoin="round"/>
<path d="M29.5714 29.5716C30.9916 29.5716 32.1429 28.4203 32.1429 27.0001C32.1429 25.58 30.9916 24.4287 29.5714 24.4287C28.1513 24.4287 27 25.58 27 27.0001C27 28.4203 28.1513 29.5716 29.5714 29.5716Z" fill="black"/>
</svg>
