<svg width="52" height="52" viewBox="0 0 52 52" fill="none" xmlns="http://www.w3.org/2000/svg">
<path d="M38.0622 0.524902L29.6872 8.835L24.9134 4.05706L21.8984 7.07206L23.4688 8.64237L12.7404 19.3707C11.5214 20.5964 10.8371 22.2547 10.8371 23.9833C10.8371 25.7119 11.5214 27.3702 12.7404 28.5958L16.6012 32.4567L0.960938 48.0279L3.97594 51.0429L19.5451 35.4026L23.4059 39.2593C24.6316 40.4783 26.2899 41.1625 28.0185 41.1625C29.7471 41.1625 31.4054 40.4783 32.631 39.2593L43.3615 28.5288L44.9318 30.0991L47.9468 27.0841L43.1647 22.3125L51.4727 13.9375L48.5309 10.9937L40.1559 19.3058L32.6959 11.8437L41.0081 3.46871L38.0622 0.524902ZM26.4147 11.5799L40.4177 25.5829L29.6872 36.3176C28.8748 37.1278 27.1621 37.1278 26.3497 36.3176L15.6863 25.652C14.8739 24.8396 14.8739 23.1269 15.6863 22.3146L26.4147 11.5841V11.5799Z" fill="black"/>
</svg>
