<svg width="45" height="45" viewBox="0 0 45 45" fill="none" xmlns="http://www.w3.org/2000/svg">
<g clip-path="url(#clip0_255_461)">
<path d="M22.5 42.1875H2.8125V4.6875C2.8125 4.6875 6.5625 2.8125 12.6562 2.8125C18.75 2.8125 22.5 4.6875 22.5 4.6875V42.1875ZM22.5 42.1875V23.4375H22.9688C22.9688 23.4375 26.25 25.3125 32.3438 25.3125C38.4375 25.3125 41.7188 23.4375 41.7188 23.4375H42.1875V42.1875H22.5ZM2.8125 17.8125C2.8125 17.8125 6.5625 15.9375 12.6562 15.9375C18.75 15.9375 22.5 17.8125 22.5 17.8125M7.5 8.4375V12.1875M7.5 20.625V24.375M34.6875 25.2169V18.2812C34.6875 17.6596 34.4406 17.0635 34.001 16.624C33.5615 16.1844 32.9654 15.9375 32.3438 15.9375C31.7221 15.9375 31.126 16.1844 30.6865 16.624C30.2469 17.0635 30 17.6596 30 18.2812V18.75" stroke="black" stroke-width="4"/>
</g>
<defs>
<clipPath id="clip0_255_461">
<rect width="45" height="45" fill="white"/>
</clipPath>
</defs>
</svg>
