<svg width="36" height="36" viewBox="0 0 36 36" fill="none" xmlns="http://www.w3.org/2000/svg">
<g clip-path="url(#clip0_255_468)">
<path d="M23.1327 14.652L28.9236 8.86111L34.7144 14.652M23.1327 23.9194L28.9236 29.7103L34.7144 23.9194M9.77159 11.9571C10.4214 11.9783 11.0689 11.8686 11.6754 11.6345C12.282 11.4004 12.8353 11.0468 13.3025 10.5946C13.7696 10.1424 14.1411 9.60092 14.3948 9.00229C14.6485 8.40366 14.7792 7.76013 14.7792 7.10997C14.7792 6.4598 14.6485 5.81628 14.3948 5.21765C14.1411 4.61902 13.7696 4.07751 13.3025 3.62532C12.8353 3.17313 12.282 2.81949 11.6754 2.58543C11.0689 2.35136 10.4214 2.24166 9.77159 2.26283C8.48536 2.26283 7.25182 2.77378 6.34232 3.68327C5.43283 4.59277 4.92188 5.82632 4.92188 7.11254C4.92188 8.39876 5.43283 9.63231 6.34232 10.5418C7.25182 11.4513 8.48536 11.9623 9.77159 11.9623V11.9571Z" stroke="black" stroke-width="3" stroke-linecap="round" stroke-linejoin="round"/>
<path d="M18.2601 20.4479C18.2601 18.197 17.366 16.0383 15.7743 14.4467C14.1827 12.8551 12.024 11.9609 9.77313 11.9609C7.52224 11.9609 5.36354 12.8551 3.77192 14.4467C2.1803 16.0383 1.28613 18.197 1.28613 20.4479V24.0839H4.9247L6.13585 33.7834H13.413L14.6216 24.0839H18.2601V20.4479Z" stroke="black" stroke-width="3" stroke-linecap="round" stroke-linejoin="round"/>
</g>
<defs>
<clipPath id="clip0_255_468">
<rect width="36" height="36" fill="white"/>
</clipPath>
</defs>
</svg>
