<svg width="50" height="49" viewBox="0 0 50 49" fill="none" xmlns="http://www.w3.org/2000/svg">
<path d="M40.9148 20.5873C42.6658 20.3234 44.2505 19.4214 45.3519 18.0617C46.4533 16.7019 46.9902 14.9847 46.8551 13.2537C46.72 11.5227 45.9229 9.90546 44.6233 8.72565C43.3238 7.54585 41.6175 6.89046 39.846 6.89062H37.5V3.82812C37.4993 3.21917 37.2521 2.63537 36.8127 2.20477C36.3734 1.77418 35.7776 1.53196 35.1562 1.53125H7.03125C6.40987 1.53196 5.81415 1.77418 5.37477 2.20477C4.93539 2.63537 4.68822 3.21917 4.6875 3.82812V13.7812C4.68822 14.3902 4.93539 14.974 5.37477 15.4046C5.81415 15.8352 6.40987 16.0774 7.03125 16.0781H35.1562C35.7776 16.0774 36.3734 15.8352 36.8127 15.4046C37.2521 14.974 37.4993 14.3902 37.5 13.7812V9.95312H39.846C40.8299 9.95314 41.7774 10.3172 42.4992 10.9725C43.2209 11.6278 43.6635 12.5259 43.7386 13.4873C43.8136 14.4487 43.5154 15.4024 42.9038 16.1576C42.2921 16.9128 41.4121 17.4138 40.4396 17.5605L23.4375 20.1238V26.7969H17.9688V47.4688H32.0312V26.7969H26.5625V22.7512L40.9148 20.5873ZM34.375 13.0156H7.8125V4.59375H34.375V13.0156ZM28.9062 29.8594V44.4062H21.0938V29.8594H28.9062Z" fill="black"/>
</svg>
