<svg width="68" height="69" viewBox="0 0 68 69" fill="none" xmlns="http://www.w3.org/2000/svg">
<path d="M48.875 56.0625H53.125V64.6875H48.875V56.0625Z" fill="black"/>
<path d="M59.5 46.5446L52.5024 39.4441C52.3055 39.2431 52.0714 39.0837 51.8136 38.9749C51.5557 38.8661 51.2792 38.8101 51 38.8101C50.7208 38.8101 50.4443 38.8661 50.1864 38.9749C49.9286 39.0837 49.6945 39.2431 49.4976 39.4441L38.8726 50.2253C38.4741 50.6296 38.2501 51.178 38.25 51.7498V64.6873H42.5V52.6425L51 44.0175L59.5 52.6425V64.6873H63.75V43.1248H59.5V46.5446Z" fill="black"/>
<path d="M19.125 45.2812C20.2986 45.2812 21.25 44.3159 21.25 43.125C21.25 41.9341 20.2986 40.9688 19.125 40.9688C17.9514 40.9688 17 41.9341 17 43.125C17 44.3159 17.9514 45.2812 19.125 45.2812Z" fill="black"/>
<path d="M48.875 28.0312C50.0486 28.0312 51 27.0659 51 25.875C51 24.6841 50.0486 23.7188 48.875 23.7188C47.7014 23.7188 46.75 24.6841 46.75 25.875C46.75 27.0659 47.7014 28.0312 48.875 28.0312Z" fill="black"/>
<path d="M19.125 12.9375C20.2986 12.9375 21.25 11.9721 21.25 10.7812C21.25 9.59039 20.2986 8.625 19.125 8.625C17.9514 8.625 17 9.59039 17 10.7812C17 11.9721 17.9514 12.9375 19.125 12.9375Z" fill="black"/>
<path d="M34 38.8125C36.3472 38.8125 38.25 36.8817 38.25 34.5C38.25 32.1183 36.3472 30.1875 34 30.1875C31.6528 30.1875 29.75 32.1183 29.75 34.5C29.75 36.8817 31.6528 38.8125 34 38.8125Z" fill="black"/>
<path d="M19.125 34.5001C19.125 26.1769 25.7975 19.4063 34 19.4063C37.6168 19.4063 40.936 20.7259 43.5158 22.9124L46.24 19.5961C43.4477 17.2361 40.0506 15.7322 36.4464 15.2605C32.8422 14.7888 29.1802 15.3689 25.8892 16.9327C22.5982 18.4965 19.8143 20.9794 17.8637 24.0906C15.9131 27.2018 14.8764 30.8126 14.875 34.5001C14.875 35.6256 14.9897 36.7253 15.1725 37.7991L19.3587 37.066C19.2088 36.219 19.1306 35.3606 19.125 34.5001Z" fill="black"/>
<path d="M8.50003 34.5C8.50003 27.3671 11.3603 20.8984 15.9779 16.2128L12.9625 13.1531C10.1959 15.9534 8.00195 19.2809 6.50677 22.9443C5.01158 26.6077 4.24464 30.5348 4.25003 34.5C4.25003 51.1721 17.5695 64.6875 34 64.6875V60.375C19.9389 60.375 8.50003 48.7679 8.50003 34.5ZM34 8.625C48.0611 8.625 59.5 20.2321 59.5 34.5H63.75C63.75 17.8279 50.4305 4.3125 34 4.3125C30.4279 4.3125 27.0173 4.98525 23.8425 6.15609L25.296 10.2098C28.0833 9.16761 31.0295 8.63115 34 8.625Z" fill="black"/>
</svg>
