<svg width="53" height="52" viewBox="0 0 53 52" fill="none" xmlns="http://www.w3.org/2000/svg">
<path fill-rule="evenodd" clip-rule="evenodd" d="M17.4618 9.22115C17.172 8.10928 16.5874 7.09248 15.7674 6.27405C14.9473 5.45561 13.9212 4.8647 12.793 4.56134C11.6649 4.25798 10.475 4.25299 9.3443 4.54686C8.21356 4.84073 7.18225 5.423 6.35513 6.23452C5.528 7.04604 4.93453 8.05789 4.63501 9.16729C4.33549 10.2767 4.34058 11.4441 4.64977 12.5509C4.95896 13.6578 5.56124 14.6646 6.39541 15.4692C7.22959 16.2737 8.26594 16.8473 9.3992 17.1317C9.39056 17.1985 9.38614 17.2658 9.38595 17.3332V34.6665C9.38595 34.7358 9.39037 34.803 9.3992 34.868C8.26594 35.1524 7.22959 35.7259 6.39541 36.5305C5.56124 37.335 4.95896 38.3419 4.64977 39.4487C4.34058 40.5555 4.33549 41.723 4.63501 42.8324C4.93453 43.9417 5.528 44.9536 6.35513 45.7651C7.18225 46.5766 8.21356 47.1589 9.3443 47.4528C10.475 47.7467 11.6649 47.7417 12.793 47.4383C13.9212 47.1349 14.9473 46.544 15.7674 45.7256C16.5874 44.9072 17.172 43.8904 17.4618 42.7785C17.5281 42.7871 17.5965 42.7915 17.6672 42.7915H35.3339C35.4025 42.7913 35.4711 42.787 35.5392 42.7785C35.8291 43.8904 36.4137 44.9072 37.2337 45.7256C38.0537 46.544 39.0799 47.1349 40.208 47.4383C41.3362 47.7417 42.526 47.7467 43.6568 47.4528C44.7875 47.1589 45.8188 46.5766 46.6459 45.7651C47.4731 44.9536 48.0665 43.9417 48.3661 42.8324C48.6656 41.723 48.6605 40.5555 48.3513 39.4487C48.0421 38.3419 47.4398 37.335 46.6057 36.5305C45.7715 35.7259 44.7351 35.1524 43.6019 34.868C43.6105 34.8012 43.615 34.7339 43.6151 34.6665V17.3332C43.6149 17.2658 43.6105 17.1985 43.6019 17.1317C44.7351 16.8473 45.7715 16.2737 46.6057 15.4692C47.4398 14.6646 48.0421 13.6578 48.3513 12.5509C48.6605 11.4441 48.6656 10.2767 48.3661 9.16729C48.0665 8.05789 47.4731 7.04604 46.6459 6.23452C45.8188 5.423 44.7875 4.84073 43.6568 4.54686C42.526 4.25299 41.3362 4.25798 40.208 4.56134C39.0799 4.8647 38.0537 5.45561 37.2337 6.27405C36.4137 7.09248 35.8291 8.10928 35.5392 9.22115C35.4711 9.21268 35.4025 9.20834 35.3339 9.20815H17.6672C17.5985 9.20834 17.5299 9.21268 17.4618 9.22115ZM12.6852 17.1317C12.694 17.1967 12.6984 17.2638 12.6984 17.3332V34.6665C12.6983 34.7339 12.6938 34.8012 12.6852 34.868C13.8361 35.158 14.8865 35.7459 15.7268 36.5703C16.567 37.3947 17.1662 38.4253 17.4618 39.5545C17.5299 39.546 17.5985 39.5416 17.6672 39.5415H35.3339C35.4025 39.5416 35.4711 39.546 35.5392 39.5545C35.8348 38.4253 36.4341 37.3947 37.2743 36.5703C38.1145 35.7459 39.165 35.158 40.3159 34.868C40.3072 34.8012 40.3028 34.7339 40.3026 34.6665V17.3332C40.3026 17.2638 40.307 17.1967 40.3159 17.1317C39.165 16.8416 38.1145 16.2537 37.2743 15.4293C36.4341 14.605 35.8348 13.5744 35.5392 12.4452C35.4711 12.4536 35.4025 12.458 35.3339 12.4582H17.6672C17.5985 12.458 17.5299 12.4536 17.4618 12.4452C17.1662 13.5744 16.567 14.605 15.7268 15.4293C14.8865 16.2537 13.8361 16.8416 12.6852 17.1317Z" fill="black"/>
</svg>
