<svg width="27" height="24" viewBox="0 0 27 24" fill="none" xmlns="http://www.w3.org/2000/svg">
<path d="M27 2.78351C25.9875 3.27835 24.9187 3.58763 23.7937 3.7732C24.9187 3.03093 25.8188 1.85567 26.2125 0.43299C25.1438 1.1134 23.9625 1.60825 22.6687 1.91753C21.6562 0.742268 20.1938 0 18.6187 0C15.5812 0 13.1063 2.72165 13.1063 6.06186C13.1063 6.5567 13.1625 6.98969 13.275 7.42268C8.71875 7.17526 4.6125 4.76289 1.85625 1.05155C1.40625 1.97938 1.125 2.96907 1.125 4.08247C1.125 6.18557 2.08125 8.04124 3.6 9.15464C2.7 9.09278 1.85625 8.84536 1.06875 8.41237V8.47423C1.06875 11.4433 2.98125 13.9175 5.5125 14.4742C5.0625 14.5979 4.55625 14.6598 4.05 14.6598C3.7125 14.6598 3.31875 14.5979 2.98125 14.5361C3.7125 16.9485 5.7375 18.7423 8.15625 18.7423C6.24375 20.3505 3.88125 21.3402 1.29375 21.3402C0.84375 21.3402 0.39375 21.3402 0 21.2784C2.475 23.0103 5.34375 24 8.49375 24C18.675 24 24.2437 14.7216 24.2437 6.68041C24.2437 6.43299 24.2437 6.12371 24.2437 5.87629C25.3125 5.07217 26.2687 4.02062 27 2.78351Z" fill="white"/>
</svg>
