<svg width="56" height="44" viewBox="0 0 56 44" fill="none" xmlns="http://www.w3.org/2000/svg">
<path d="M54.25 0.671875H1.75C1.31488 0.671875 0.89758 0.844726 0.589903 1.1524C0.282226 1.46008 0.109375 1.87738 0.109375 2.3125V41.6875C0.109375 42.1226 0.282226 42.5399 0.589903 42.8476C0.89758 43.1553 1.31488 43.3281 1.75 43.3281H54.25C54.6851 43.3281 55.1024 43.1553 55.4101 42.8476C55.7178 42.5399 55.8906 42.1226 55.8906 41.6875V2.3125C55.8906 1.87738 55.7178 1.46008 55.4101 1.1524C55.1024 0.844726 54.6851 0.671875 54.25 0.671875ZM16.5156 26.9219V17.0781H39.4844V26.9219H16.5156ZM3.39062 26.9219V17.0781H13.2344V26.9219H3.39062ZM42.7656 17.0781H52.6094V26.9219H42.7656V17.0781ZM52.6094 13.7969H29.6406V3.95312H52.6094V13.7969ZM26.3594 3.95312V13.7969H3.39062V3.95312H26.3594ZM3.39062 30.2031H26.3594V40.0469H3.39062V30.2031ZM29.6406 40.0469V30.2031H52.6094V40.0469H29.6406Z" fill="black"/>
</svg>
